<?xml version="1.0" encoding="utf-8" standalone="no"?>
<!DOCTYPE svg PUBLIC "-//W3C//DTD SVG 1.1//EN"
  "http://www.w3.org/Graphics/SVG/1.1/DTD/svg11.dtd">
<!-- Created with matplotlib (https://matplotlib.org/) -->
<svg height="576pt" version="1.1" viewBox="0 0 1080 576" width="1080pt" xmlns="http://www.w3.org/2000/svg" xmlns:xlink="http://www.w3.org/1999/xlink">
 <metadata>
  <rdf:RDF xmlns:cc="http://creativecommons.org/ns#" xmlns:dc="http://purl.org/dc/elements/1.1/" xmlns:rdf="http://www.w3.org/1999/02/22-rdf-syntax-ns#">
   <cc:Work>
    <dc:type rdf:resource="http://purl.org/dc/dcmitype/StillImage"/>
    <dc:date>2020-08-16T16:37:52.175372</dc:date>
    <dc:format>image/svg+xml</dc:format>
    <dc:creator>
     <cc:Agent>
      <dc:title>Matplotlib v3.3.0, https://matplotlib.org/</dc:title>
     </cc:Agent>
    </dc:creator>
   </cc:Work>
  </rdf:RDF>
 </metadata>
 <defs>
  <style type="text/css">*{stroke-linecap:butt;stroke-linejoin:round;}</style>
 </defs>
 <g id="figure_1">
  <g id="patch_1">
   <path d="M 0 576 
L 1080 576 
L 1080 0 
L 0 0 
z
" style="fill:#ffffff;"/>
  </g>
  <g id="axes_1">
   <g id="patch_2">
    <path d="M 135 512.64 
L 972 512.64 
L 972 69.12 
L 135 69.12 
z
" style="fill:#ffffff;"/>
   </g>
   <g id="matplotlib.axis_1">
    <g id="xtick_1">
     <g id="line2d_1">
      <defs>
       <path d="M 0 0 
L 0 3.5 
" id="m6d72ab7374" style="stroke:#000000;stroke-width:0.8;"/>
      </defs>
      <g>
       <use style="stroke:#000000;stroke-width:0.8;" x="256.838558" xlink:href="#m6d72ab7374" y="512.64"/>
      </g>
     </g>
     <g id="text_1">
      <!-- 0.2 -->
      <g transform="translate(248.886995 527.238438)scale(0.1 -0.1)">
       <defs>
        <path d="M 31.78125 66.40625 
Q 24.171875 66.40625 20.328125 58.90625 
Q 16.5 51.421875 16.5 36.375 
Q 16.5 21.390625 20.328125 13.890625 
Q 24.171875 6.390625 31.78125 6.390625 
Q 39.453125 6.390625 43.28125 13.890625 
Q 47.125 21.390625 47.125 36.375 
Q 47.125 51.421875 43.28125 58.90625 
Q 39.453125 66.40625 31.78125 66.40625 
z
M 31.78125 74.21875 
Q 44.046875 74.21875 50.515625 64.515625 
Q 56.984375 54.828125 56.984375 36.375 
Q 56.984375 17.96875 50.515625 8.265625 
Q 44.046875 -1.421875 31.78125 -1.421875 
Q 19.53125 -1.421875 13.0625 8.265625 
Q 6.59375 17.96875 6.59375 36.375 
Q 6.59375 54.828125 13.0625 64.515625 
Q 19.53125 74.21875 31.78125 74.21875 
z
" id="DejaVuSans-48"/>
        <path d="M 10.6875 12.40625 
L 21 12.40625 
L 21 0 
L 10.6875 0 
z
" id="DejaVuSans-46"/>
        <path d="M 19.1875 8.296875 
L 53.609375 8.296875 
L 53.609375 0 
L 7.328125 0 
L 7.328125 8.296875 
Q 12.9375 14.109375 22.625 23.890625 
Q 32.328125 33.6875 34.8125 36.53125 
Q 39.546875 41.84375 41.421875 45.53125 
Q 43.3125 49.21875 43.3125 52.78125 
Q 43.3125 58.59375 39.234375 62.25 
Q 35.15625 65.921875 28.609375 65.921875 
Q 23.96875 65.921875 18.8125 64.3125 
Q 13.671875 62.703125 7.8125 59.421875 
L 7.8125 69.390625 
Q 13.765625 71.78125 18.9375 73 
Q 24.125 74.21875 28.421875 74.21875 
Q 39.75 74.21875 46.484375 68.546875 
Q 53.21875 62.890625 53.21875 53.421875 
Q 53.21875 48.921875 51.53125 44.890625 
Q 49.859375 40.875 45.40625 35.40625 
Q 44.1875 33.984375 37.640625 27.21875 
Q 31.109375 20.453125 19.1875 8.296875 
z
" id="DejaVuSans-50"/>
       </defs>
       <use xlink:href="#DejaVuSans-48"/>
       <use x="63.623047" xlink:href="#DejaVuSans-46"/>
       <use x="95.410156" xlink:href="#DejaVuSans-50"/>
      </g>
     </g>
    </g>
    <g id="xtick_2">
     <g id="line2d_2">
      <g>
       <use style="stroke:#000000;stroke-width:0.8;" x="426.117555" xlink:href="#m6d72ab7374" y="512.64"/>
      </g>
     </g>
     <g id="text_2">
      <!-- 0.4 -->
      <g transform="translate(418.165992 527.238438)scale(0.1 -0.1)">
       <defs>
        <path d="M 37.796875 64.3125 
L 12.890625 25.390625 
L 37.796875 25.390625 
z
M 35.203125 72.90625 
L 47.609375 72.90625 
L 47.609375 25.390625 
L 58.015625 25.390625 
L 58.015625 17.1875 
L 47.609375 17.1875 
L 47.609375 0 
L 37.796875 0 
L 37.796875 17.1875 
L 4.890625 17.1875 
L 4.890625 26.703125 
z
" id="DejaVuSans-52"/>
       </defs>
       <use xlink:href="#DejaVuSans-48"/>
       <use x="63.623047" xlink:href="#DejaVuSans-46"/>
       <use x="95.410156" xlink:href="#DejaVuSans-52"/>
      </g>
     </g>
    </g>
    <g id="xtick_3">
     <g id="line2d_3">
      <g>
       <use style="stroke:#000000;stroke-width:0.8;" x="595.396552" xlink:href="#m6d72ab7374" y="512.64"/>
      </g>
     </g>
     <g id="text_3">
      <!-- 0.6 -->
      <g transform="translate(587.444989 527.238438)scale(0.1 -0.1)">
       <defs>
        <path d="M 33.015625 40.375 
Q 26.375 40.375 22.484375 35.828125 
Q 18.609375 31.296875 18.609375 23.390625 
Q 18.609375 15.53125 22.484375 10.953125 
Q 26.375 6.390625 33.015625 6.390625 
Q 39.65625 6.390625 43.53125 10.953125 
Q 47.40625 15.53125 47.40625 23.390625 
Q 47.40625 31.296875 43.53125 35.828125 
Q 39.65625 40.375 33.015625 40.375 
z
M 52.59375 71.296875 
L 52.59375 62.3125 
Q 48.875 64.0625 45.09375 64.984375 
Q 41.3125 65.921875 37.59375 65.921875 
Q 27.828125 65.921875 22.671875 59.328125 
Q 17.53125 52.734375 16.796875 39.40625 
Q 19.671875 43.65625 24.015625 45.921875 
Q 28.375 48.1875 33.59375 48.1875 
Q 44.578125 48.1875 50.953125 41.515625 
Q 57.328125 34.859375 57.328125 23.390625 
Q 57.328125 12.15625 50.6875 5.359375 
Q 44.046875 -1.421875 33.015625 -1.421875 
Q 20.359375 -1.421875 13.671875 8.265625 
Q 6.984375 17.96875 6.984375 36.375 
Q 6.984375 53.65625 15.1875 63.9375 
Q 23.390625 74.21875 37.203125 74.21875 
Q 40.921875 74.21875 44.703125 73.484375 
Q 48.484375 72.75 52.59375 71.296875 
z
" id="DejaVuSans-54"/>
       </defs>
       <use xlink:href="#DejaVuSans-48"/>
       <use x="63.623047" xlink:href="#DejaVuSans-46"/>
       <use x="95.410156" xlink:href="#DejaVuSans-54"/>
      </g>
     </g>
    </g>
    <g id="xtick_4">
     <g id="line2d_4">
      <g>
       <use style="stroke:#000000;stroke-width:0.8;" x="764.675549" xlink:href="#m6d72ab7374" y="512.64"/>
      </g>
     </g>
     <g id="text_4">
      <!-- 0.8 -->
      <g transform="translate(756.723986 527.238438)scale(0.1 -0.1)">
       <defs>
        <path d="M 31.78125 34.625 
Q 24.75 34.625 20.71875 30.859375 
Q 16.703125 27.09375 16.703125 20.515625 
Q 16.703125 13.921875 20.71875 10.15625 
Q 24.75 6.390625 31.78125 6.390625 
Q 38.8125 6.390625 42.859375 10.171875 
Q 46.921875 13.96875 46.921875 20.515625 
Q 46.921875 27.09375 42.890625 30.859375 
Q 38.875 34.625 31.78125 34.625 
z
M 21.921875 38.8125 
Q 15.578125 40.375 12.03125 44.71875 
Q 8.5 49.078125 8.5 55.328125 
Q 8.5 64.0625 14.71875 69.140625 
Q 20.953125 74.21875 31.78125 74.21875 
Q 42.671875 74.21875 48.875 69.140625 
Q 55.078125 64.0625 55.078125 55.328125 
Q 55.078125 49.078125 51.53125 44.71875 
Q 48 40.375 41.703125 38.8125 
Q 48.828125 37.15625 52.796875 32.3125 
Q 56.78125 27.484375 56.78125 20.515625 
Q 56.78125 9.90625 50.3125 4.234375 
Q 43.84375 -1.421875 31.78125 -1.421875 
Q 19.734375 -1.421875 13.25 4.234375 
Q 6.78125 9.90625 6.78125 20.515625 
Q 6.78125 27.484375 10.78125 32.3125 
Q 14.796875 37.15625 21.921875 38.8125 
z
M 18.3125 54.390625 
Q 18.3125 48.734375 21.84375 45.5625 
Q 25.390625 42.390625 31.78125 42.390625 
Q 38.140625 42.390625 41.71875 45.5625 
Q 45.3125 48.734375 45.3125 54.390625 
Q 45.3125 60.0625 41.71875 63.234375 
Q 38.140625 66.40625 31.78125 66.40625 
Q 25.390625 66.40625 21.84375 63.234375 
Q 18.3125 60.0625 18.3125 54.390625 
z
" id="DejaVuSans-56"/>
       </defs>
       <use xlink:href="#DejaVuSans-48"/>
       <use x="63.623047" xlink:href="#DejaVuSans-46"/>
       <use x="95.410156" xlink:href="#DejaVuSans-56"/>
      </g>
     </g>
    </g>
    <g id="xtick_5">
     <g id="line2d_5">
      <g>
       <use style="stroke:#000000;stroke-width:0.8;" x="933.954545" xlink:href="#m6d72ab7374" y="512.64"/>
      </g>
     </g>
     <g id="text_5">
      <!-- 1.0 -->
      <g transform="translate(926.002983 527.238438)scale(0.1 -0.1)">
       <defs>
        <path d="M 12.40625 8.296875 
L 28.515625 8.296875 
L 28.515625 63.921875 
L 10.984375 60.40625 
L 10.984375 69.390625 
L 28.421875 72.90625 
L 38.28125 72.90625 
L 38.28125 8.296875 
L 54.390625 8.296875 
L 54.390625 0 
L 12.40625 0 
z
" id="DejaVuSans-49"/>
       </defs>
       <use xlink:href="#DejaVuSans-49"/>
       <use x="63.623047" xlink:href="#DejaVuSans-46"/>
       <use x="95.410156" xlink:href="#DejaVuSans-48"/>
      </g>
     </g>
    </g>
    <g id="text_6">
     <!-- Generation -->
     <g transform="translate(525.607031 540.916563)scale(0.1 -0.1)">
      <defs>
       <path d="M 59.515625 10.40625 
L 59.515625 29.984375 
L 43.40625 29.984375 
L 43.40625 38.09375 
L 69.28125 38.09375 
L 69.28125 6.78125 
Q 63.578125 2.734375 56.6875 0.65625 
Q 49.8125 -1.421875 42 -1.421875 
Q 24.90625 -1.421875 15.25 8.5625 
Q 5.609375 18.5625 5.609375 36.375 
Q 5.609375 54.25 15.25 64.234375 
Q 24.90625 74.21875 42 74.21875 
Q 49.125 74.21875 55.546875 72.453125 
Q 61.96875 70.703125 67.390625 67.28125 
L 67.390625 56.78125 
Q 61.921875 61.421875 55.765625 63.765625 
Q 49.609375 66.109375 42.828125 66.109375 
Q 29.4375 66.109375 22.71875 58.640625 
Q 16.015625 51.171875 16.015625 36.375 
Q 16.015625 21.625 22.71875 14.15625 
Q 29.4375 6.6875 42.828125 6.6875 
Q 48.046875 6.6875 52.140625 7.59375 
Q 56.25 8.5 59.515625 10.40625 
z
" id="DejaVuSans-71"/>
       <path d="M 56.203125 29.59375 
L 56.203125 25.203125 
L 14.890625 25.203125 
Q 15.484375 15.921875 20.484375 11.0625 
Q 25.484375 6.203125 34.421875 6.203125 
Q 39.59375 6.203125 44.453125 7.46875 
Q 49.3125 8.734375 54.109375 11.28125 
L 54.109375 2.78125 
Q 49.265625 0.734375 44.1875 -0.34375 
Q 39.109375 -1.421875 33.890625 -1.421875 
Q 20.796875 -1.421875 13.15625 6.1875 
Q 5.515625 13.8125 5.515625 26.8125 
Q 5.515625 40.234375 12.765625 48.109375 
Q 20.015625 56 32.328125 56 
Q 43.359375 56 49.78125 48.890625 
Q 56.203125 41.796875 56.203125 29.59375 
z
M 47.21875 32.234375 
Q 47.125 39.59375 43.09375 43.984375 
Q 39.0625 48.390625 32.421875 48.390625 
Q 24.90625 48.390625 20.390625 44.140625 
Q 15.875 39.890625 15.1875 32.171875 
z
" id="DejaVuSans-101"/>
       <path d="M 54.890625 33.015625 
L 54.890625 0 
L 45.90625 0 
L 45.90625 32.71875 
Q 45.90625 40.484375 42.875 44.328125 
Q 39.84375 48.1875 33.796875 48.1875 
Q 26.515625 48.1875 22.3125 43.546875 
Q 18.109375 38.921875 18.109375 30.90625 
L 18.109375 0 
L 9.078125 0 
L 9.078125 54.6875 
L 18.109375 54.6875 
L 18.109375 46.1875 
Q 21.34375 51.125 25.703125 53.5625 
Q 30.078125 56 35.796875 56 
Q 45.21875 56 50.046875 50.171875 
Q 54.890625 44.34375 54.890625 33.015625 
z
" id="DejaVuSans-110"/>
       <path d="M 41.109375 46.296875 
Q 39.59375 47.171875 37.8125 47.578125 
Q 36.03125 48 33.890625 48 
Q 26.265625 48 22.1875 43.046875 
Q 18.109375 38.09375 18.109375 28.8125 
L 18.109375 0 
L 9.078125 0 
L 9.078125 54.6875 
L 18.109375 54.6875 
L 18.109375 46.1875 
Q 20.953125 51.171875 25.484375 53.578125 
Q 30.03125 56 36.53125 56 
Q 37.453125 56 38.578125 55.875 
Q 39.703125 55.765625 41.0625 55.515625 
z
" id="DejaVuSans-114"/>
       <path d="M 34.28125 27.484375 
Q 23.390625 27.484375 19.1875 25 
Q 14.984375 22.515625 14.984375 16.5 
Q 14.984375 11.71875 18.140625 8.90625 
Q 21.296875 6.109375 26.703125 6.109375 
Q 34.1875 6.109375 38.703125 11.40625 
Q 43.21875 16.703125 43.21875 25.484375 
L 43.21875 27.484375 
z
M 52.203125 31.203125 
L 52.203125 0 
L 43.21875 0 
L 43.21875 8.296875 
Q 40.140625 3.328125 35.546875 0.953125 
Q 30.953125 -1.421875 24.3125 -1.421875 
Q 15.921875 -1.421875 10.953125 3.296875 
Q 6 8.015625 6 15.921875 
Q 6 25.140625 12.171875 29.828125 
Q 18.359375 34.515625 30.609375 34.515625 
L 43.21875 34.515625 
L 43.21875 35.40625 
Q 43.21875 41.609375 39.140625 45 
Q 35.0625 48.390625 27.6875 48.390625 
Q 23 48.390625 18.546875 47.265625 
Q 14.109375 46.140625 10.015625 43.890625 
L 10.015625 52.203125 
Q 14.9375 54.109375 19.578125 55.046875 
Q 24.21875 56 28.609375 56 
Q 40.484375 56 46.34375 49.84375 
Q 52.203125 43.703125 52.203125 31.203125 
z
" id="DejaVuSans-97"/>
       <path d="M 18.3125 70.21875 
L 18.3125 54.6875 
L 36.8125 54.6875 
L 36.8125 47.703125 
L 18.3125 47.703125 
L 18.3125 18.015625 
Q 18.3125 11.328125 20.140625 9.421875 
Q 21.96875 7.515625 27.59375 7.515625 
L 36.8125 7.515625 
L 36.8125 0 
L 27.59375 0 
Q 17.1875 0 13.234375 3.875 
Q 9.28125 7.765625 9.28125 18.015625 
L 9.28125 47.703125 
L 2.6875 47.703125 
L 2.6875 54.6875 
L 9.28125 54.6875 
L 9.28125 70.21875 
z
" id="DejaVuSans-116"/>
       <path d="M 9.421875 54.6875 
L 18.40625 54.6875 
L 18.40625 0 
L 9.421875 0 
z
M 9.421875 75.984375 
L 18.40625 75.984375 
L 18.40625 64.59375 
L 9.421875 64.59375 
z
" id="DejaVuSans-105"/>
       <path d="M 30.609375 48.390625 
Q 23.390625 48.390625 19.1875 42.75 
Q 14.984375 37.109375 14.984375 27.296875 
Q 14.984375 17.484375 19.15625 11.84375 
Q 23.34375 6.203125 30.609375 6.203125 
Q 37.796875 6.203125 41.984375 11.859375 
Q 46.1875 17.53125 46.1875 27.296875 
Q 46.1875 37.015625 41.984375 42.703125 
Q 37.796875 48.390625 30.609375 48.390625 
z
M 30.609375 56 
Q 42.328125 56 49.015625 48.375 
Q 55.71875 40.765625 55.71875 27.296875 
Q 55.71875 13.875 49.015625 6.21875 
Q 42.328125 -1.421875 30.609375 -1.421875 
Q 18.84375 -1.421875 12.171875 6.21875 
Q 5.515625 13.875 5.515625 27.296875 
Q 5.515625 40.765625 12.171875 48.375 
Q 18.84375 56 30.609375 56 
z
" id="DejaVuSans-111"/>
      </defs>
      <use xlink:href="#DejaVuSans-71"/>
      <use x="77.490234" xlink:href="#DejaVuSans-101"/>
      <use x="139.013672" xlink:href="#DejaVuSans-110"/>
      <use x="202.392578" xlink:href="#DejaVuSans-101"/>
      <use x="263.916016" xlink:href="#DejaVuSans-114"/>
      <use x="305.029297" xlink:href="#DejaVuSans-97"/>
      <use x="366.308594" xlink:href="#DejaVuSans-116"/>
      <use x="405.517578" xlink:href="#DejaVuSans-105"/>
      <use x="433.300781" xlink:href="#DejaVuSans-111"/>
      <use x="494.482422" xlink:href="#DejaVuSans-110"/>
     </g>
    </g>
    <g id="text_7">
     <!-- 1e7 -->
     <g transform="translate(953.121875 539.916563)scale(0.1 -0.1)">
      <defs>
       <path d="M 8.203125 72.90625 
L 55.078125 72.90625 
L 55.078125 68.703125 
L 28.609375 0 
L 18.3125 0 
L 43.21875 64.59375 
L 8.203125 64.59375 
z
" id="DejaVuSans-55"/>
      </defs>
      <use xlink:href="#DejaVuSans-49"/>
      <use x="63.623047" xlink:href="#DejaVuSans-101"/>
      <use x="125.146484" xlink:href="#DejaVuSans-55"/>
     </g>
    </g>
   </g>
   <g id="matplotlib.axis_2">
    <g id="ytick_1">
     <g id="line2d_6">
      <defs>
       <path d="M 0 0 
L -3.5 0 
" id="me72ebb51c1" style="stroke:#000000;stroke-width:0.8;"/>
      </defs>
      <g>
       <use style="stroke:#000000;stroke-width:0.8;" x="135" xlink:href="#me72ebb51c1" y="487.019656"/>
      </g>
     </g>
     <g id="text_8">
      <!-- 0.015 -->
      <g transform="translate(99.371875 490.818875)scale(0.1 -0.1)">
       <defs>
        <path d="M 10.796875 72.90625 
L 49.515625 72.90625 
L 49.515625 64.59375 
L 19.828125 64.59375 
L 19.828125 46.734375 
Q 21.96875 47.46875 24.109375 47.828125 
Q 26.265625 48.1875 28.421875 48.1875 
Q 40.625 48.1875 47.75 41.5 
Q 54.890625 34.8125 54.890625 23.390625 
Q 54.890625 11.625 47.5625 5.09375 
Q 40.234375 -1.421875 26.90625 -1.421875 
Q 22.3125 -1.421875 17.546875 -0.640625 
Q 12.796875 0.140625 7.71875 1.703125 
L 7.71875 11.625 
Q 12.109375 9.234375 16.796875 8.0625 
Q 21.484375 6.890625 26.703125 6.890625 
Q 35.15625 6.890625 40.078125 11.328125 
Q 45.015625 15.765625 45.015625 23.390625 
Q 45.015625 31 40.078125 35.4375 
Q 35.15625 39.890625 26.703125 39.890625 
Q 22.75 39.890625 18.8125 39.015625 
Q 14.890625 38.140625 10.796875 36.28125 
z
" id="DejaVuSans-53"/>
       </defs>
       <use xlink:href="#DejaVuSans-48"/>
       <use x="63.623047" xlink:href="#DejaVuSans-46"/>
       <use x="95.410156" xlink:href="#DejaVuSans-48"/>
       <use x="159.033203" xlink:href="#DejaVuSans-49"/>
       <use x="222.65625" xlink:href="#DejaVuSans-53"/>
      </g>
     </g>
    </g>
    <g id="ytick_2">
     <g id="line2d_7">
      <g>
       <use style="stroke:#000000;stroke-width:0.8;" x="135" xlink:href="#me72ebb51c1" y="408.340344"/>
      </g>
     </g>
     <g id="text_9">
      <!-- 0.020 -->
      <g transform="translate(99.371875 412.139563)scale(0.1 -0.1)">
       <use xlink:href="#DejaVuSans-48"/>
       <use x="63.623047" xlink:href="#DejaVuSans-46"/>
       <use x="95.410156" xlink:href="#DejaVuSans-48"/>
       <use x="159.033203" xlink:href="#DejaVuSans-50"/>
       <use x="222.65625" xlink:href="#DejaVuSans-48"/>
      </g>
     </g>
    </g>
    <g id="ytick_3">
     <g id="line2d_8">
      <g>
       <use style="stroke:#000000;stroke-width:0.8;" x="135" xlink:href="#me72ebb51c1" y="329.661033"/>
      </g>
     </g>
     <g id="text_10">
      <!-- 0.025 -->
      <g transform="translate(99.371875 333.460251)scale(0.1 -0.1)">
       <use xlink:href="#DejaVuSans-48"/>
       <use x="63.623047" xlink:href="#DejaVuSans-46"/>
       <use x="95.410156" xlink:href="#DejaVuSans-48"/>
       <use x="159.033203" xlink:href="#DejaVuSans-50"/>
       <use x="222.65625" xlink:href="#DejaVuSans-53"/>
      </g>
     </g>
    </g>
    <g id="ytick_4">
     <g id="line2d_9">
      <g>
       <use style="stroke:#000000;stroke-width:0.8;" x="135" xlink:href="#me72ebb51c1" y="250.981721"/>
      </g>
     </g>
     <g id="text_11">
      <!-- 0.030 -->
      <g transform="translate(99.371875 254.78094)scale(0.1 -0.1)">
       <defs>
        <path d="M 40.578125 39.3125 
Q 47.65625 37.796875 51.625 33 
Q 55.609375 28.21875 55.609375 21.1875 
Q 55.609375 10.40625 48.1875 4.484375 
Q 40.765625 -1.421875 27.09375 -1.421875 
Q 22.515625 -1.421875 17.65625 -0.515625 
Q 12.796875 0.390625 7.625 2.203125 
L 7.625 11.71875 
Q 11.71875 9.328125 16.59375 8.109375 
Q 21.484375 6.890625 26.8125 6.890625 
Q 36.078125 6.890625 40.9375 10.546875 
Q 45.796875 14.203125 45.796875 21.1875 
Q 45.796875 27.640625 41.28125 31.265625 
Q 36.765625 34.90625 28.71875 34.90625 
L 20.21875 34.90625 
L 20.21875 43.015625 
L 29.109375 43.015625 
Q 36.375 43.015625 40.234375 45.921875 
Q 44.09375 48.828125 44.09375 54.296875 
Q 44.09375 59.90625 40.109375 62.90625 
Q 36.140625 65.921875 28.71875 65.921875 
Q 24.65625 65.921875 20.015625 65.03125 
Q 15.375 64.15625 9.8125 62.3125 
L 9.8125 71.09375 
Q 15.4375 72.65625 20.34375 73.4375 
Q 25.25 74.21875 29.59375 74.21875 
Q 40.828125 74.21875 47.359375 69.109375 
Q 53.90625 64.015625 53.90625 55.328125 
Q 53.90625 49.265625 50.4375 45.09375 
Q 46.96875 40.921875 40.578125 39.3125 
z
" id="DejaVuSans-51"/>
       </defs>
       <use xlink:href="#DejaVuSans-48"/>
       <use x="63.623047" xlink:href="#DejaVuSans-46"/>
       <use x="95.410156" xlink:href="#DejaVuSans-48"/>
       <use x="159.033203" xlink:href="#DejaVuSans-51"/>
       <use x="222.65625" xlink:href="#DejaVuSans-48"/>
      </g>
     </g>
    </g>
    <g id="ytick_5">
     <g id="line2d_10">
      <g>
       <use style="stroke:#000000;stroke-width:0.8;" x="135" xlink:href="#me72ebb51c1" y="172.30241"/>
      </g>
     </g>
     <g id="text_12">
      <!-- 0.035 -->
      <g transform="translate(99.371875 176.101628)scale(0.1 -0.1)">
       <use xlink:href="#DejaVuSans-48"/>
       <use x="63.623047" xlink:href="#DejaVuSans-46"/>
       <use x="95.410156" xlink:href="#DejaVuSans-48"/>
       <use x="159.033203" xlink:href="#DejaVuSans-51"/>
       <use x="222.65625" xlink:href="#DejaVuSans-53"/>
      </g>
     </g>
    </g>
    <g id="ytick_6">
     <g id="line2d_11">
      <g>
       <use style="stroke:#000000;stroke-width:0.8;" x="135" xlink:href="#me72ebb51c1" y="93.623098"/>
      </g>
     </g>
     <g id="text_13">
      <!-- 0.040 -->
      <g transform="translate(99.371875 97.422317)scale(0.1 -0.1)">
       <use xlink:href="#DejaVuSans-48"/>
       <use x="63.623047" xlink:href="#DejaVuSans-46"/>
       <use x="95.410156" xlink:href="#DejaVuSans-48"/>
       <use x="159.033203" xlink:href="#DejaVuSans-52"/>
       <use x="222.65625" xlink:href="#DejaVuSans-48"/>
      </g>
     </g>
    </g>
    <g id="text_14">
     <!-- Standard deviation -->
     <g transform="translate(93.292187 338.457344)rotate(-90)scale(0.1 -0.1)">
      <defs>
       <path d="M 53.515625 70.515625 
L 53.515625 60.890625 
Q 47.90625 63.578125 42.921875 64.890625 
Q 37.9375 66.21875 33.296875 66.21875 
Q 25.25 66.21875 20.875 63.09375 
Q 16.5 59.96875 16.5 54.203125 
Q 16.5 49.359375 19.40625 46.890625 
Q 22.3125 44.4375 30.421875 42.921875 
L 36.375 41.703125 
Q 47.40625 39.59375 52.65625 34.296875 
Q 57.90625 29 57.90625 20.125 
Q 57.90625 9.515625 50.796875 4.046875 
Q 43.703125 -1.421875 29.984375 -1.421875 
Q 24.8125 -1.421875 18.96875 -0.25 
Q 13.140625 0.921875 6.890625 3.21875 
L 6.890625 13.375 
Q 12.890625 10.015625 18.65625 8.296875 
Q 24.421875 6.59375 29.984375 6.59375 
Q 38.421875 6.59375 43.015625 9.90625 
Q 47.609375 13.234375 47.609375 19.390625 
Q 47.609375 24.75 44.3125 27.78125 
Q 41.015625 30.8125 33.5 32.328125 
L 27.484375 33.5 
Q 16.453125 35.6875 11.515625 40.375 
Q 6.59375 45.0625 6.59375 53.421875 
Q 6.59375 63.09375 13.40625 68.65625 
Q 20.21875 74.21875 32.171875 74.21875 
Q 37.3125 74.21875 42.625 73.28125 
Q 47.953125 72.359375 53.515625 70.515625 
z
" id="DejaVuSans-83"/>
       <path d="M 45.40625 46.390625 
L 45.40625 75.984375 
L 54.390625 75.984375 
L 54.390625 0 
L 45.40625 0 
L 45.40625 8.203125 
Q 42.578125 3.328125 38.25 0.953125 
Q 33.9375 -1.421875 27.875 -1.421875 
Q 17.96875 -1.421875 11.734375 6.484375 
Q 5.515625 14.40625 5.515625 27.296875 
Q 5.515625 40.1875 11.734375 48.09375 
Q 17.96875 56 27.875 56 
Q 33.9375 56 38.25 53.625 
Q 42.578125 51.265625 45.40625 46.390625 
z
M 14.796875 27.296875 
Q 14.796875 17.390625 18.875 11.75 
Q 22.953125 6.109375 30.078125 6.109375 
Q 37.203125 6.109375 41.296875 11.75 
Q 45.40625 17.390625 45.40625 27.296875 
Q 45.40625 37.203125 41.296875 42.84375 
Q 37.203125 48.484375 30.078125 48.484375 
Q 22.953125 48.484375 18.875 42.84375 
Q 14.796875 37.203125 14.796875 27.296875 
z
" id="DejaVuSans-100"/>
       <path id="DejaVuSans-32"/>
       <path d="M 2.984375 54.6875 
L 12.5 54.6875 
L 29.59375 8.796875 
L 46.6875 54.6875 
L 56.203125 54.6875 
L 35.6875 0 
L 23.484375 0 
z
" id="DejaVuSans-118"/>
      </defs>
      <use xlink:href="#DejaVuSans-83"/>
      <use x="63.476562" xlink:href="#DejaVuSans-116"/>
      <use x="102.685547" xlink:href="#DejaVuSans-97"/>
      <use x="163.964844" xlink:href="#DejaVuSans-110"/>
      <use x="227.34375" xlink:href="#DejaVuSans-100"/>
      <use x="290.820312" xlink:href="#DejaVuSans-97"/>
      <use x="352.099609" xlink:href="#DejaVuSans-114"/>
      <use x="391.462891" xlink:href="#DejaVuSans-100"/>
      <use x="454.939453" xlink:href="#DejaVuSans-32"/>
      <use x="486.726562" xlink:href="#DejaVuSans-100"/>
      <use x="550.203125" xlink:href="#DejaVuSans-101"/>
      <use x="611.726562" xlink:href="#DejaVuSans-118"/>
      <use x="670.90625" xlink:href="#DejaVuSans-105"/>
      <use x="698.689453" xlink:href="#DejaVuSans-97"/>
      <use x="759.96875" xlink:href="#DejaVuSans-116"/>
      <use x="799.177734" xlink:href="#DejaVuSans-105"/>
      <use x="826.960938" xlink:href="#DejaVuSans-111"/>
      <use x="888.142578" xlink:href="#DejaVuSans-110"/>
     </g>
    </g>
   </g>
   <g id="line2d_12">
    <path clip-path="url(#p5894f27ae8)" d="M 173.045455 90.979473 
L 173.89185 89.28 
L 174.738245 98.4068 
L 175.584639 117.305571 
L 176.431034 138.895174 
L 177.277429 142.058082 
L 178.970219 124.465388 
L 179.816614 126.275012 
L 180.663009 132.317583 
L 181.509404 131.247545 
L 182.355799 136.062719 
L 183.202194 146.432652 
L 184.048589 153.05745 
L 184.894984 162.750741 
L 185.741379 155.559452 
L 186.587774 167.723274 
L 187.434169 175.276488 
L 188.280564 174.442487 
L 189.126959 168.683161 
L 189.973354 179.824152 
L 190.819749 184.655061 
L 191.666144 187.692083 
L 192.512539 196.409751 
L 193.358934 188.054008 
L 194.205329 185.410383 
L 195.051724 169.391275 
L 195.898119 168.305501 
L 196.744514 171.043541 
L 197.590909 161.979684 
L 198.437304 170.744559 
L 199.283699 167.581651 
L 200.130094 168.541538 
L 200.976489 171.263843 
L 201.822884 172.160787 
L 202.669279 172.113579 
L 203.515674 172.318145 
L 204.362069 184.655061 
L 205.208464 188.038272 
L 206.054859 190.524538 
L 206.901254 198.030544 
L 207.747649 191.169708 
L 208.594044 186.983969 
L 209.440439 186.921026 
L 210.286834 192.003709 
L 211.133229 196.142241 
L 211.979624 205.4264 
L 212.826019 208.636516 
L 213.672414 216.535919 
L 214.518809 231.752497 
L 215.365204 230.997176 
L 216.211599 228.259136 
L 217.057994 226.433776 
L 217.904389 222.436867 
L 218.750784 209.061384 
L 219.597179 213.404482 
L 220.443574 214.726294 
L 221.289969 203.223379 
L 222.136364 210.477612 
L 222.982759 203.254851 
L 223.829154 205.473607 
L 224.675549 211.185725 
L 225.521944 213.64052 
L 226.368339 209.659347 
L 227.214734 211.217197 
L 228.061129 213.860822 
L 228.907524 211.012631 
L 229.753918 212.208556 
L 231.446708 221.272413 
L 232.293103 210.320253 
L 233.139498 210.17863 
L 233.985893 207.157345 
L 234.832288 215.214106 
L 235.678683 213.860822 
L 236.525078 214.348634 
L 238.217868 227.865739 
L 239.064263 221.775961 
L 239.910658 230.147439 
L 240.757053 223.853094 
L 241.603448 224.32517 
L 242.449843 223.019094 
L 243.296238 225.332266 
L 244.989028 239.620429 
L 245.835423 241.618883 
L 246.681818 235.119972 
L 247.528213 241.272694 
L 248.374608 238.833635 
L 249.221003 239.636164 
L 250.067398 235.35601 
L 250.913793 235.796614 
L 251.760188 232.885479 
L 252.606583 234.710839 
L 253.452978 239.824995 
L 254.299373 250.903042 
L 255.145768 257.637991 
L 255.992163 261.697843 
L 256.838558 268.74751 
L 258.531348 279.24333 
L 259.377743 278.692575 
L 260.224138 283.413333 
L 261.070533 285.695033 
L 261.916928 286.780808 
L 262.763323 288.55896 
L 263.609718 293.688851 
L 264.456113 288.873678 
L 265.302508 293.342662 
L 266.148903 293.924889 
L 266.995298 290.274169 
L 267.841693 294.334022 
L 268.688088 291.155378 
L 269.534483 286.497562 
L 270.380878 285.710769 
L 271.227273 288.37013 
L 272.073668 284.71941 
L 272.920063 291.580246 
L 273.766458 293.279719 
L 274.612853 293.059417 
L 275.459248 283.366126 
L 276.305643 282.815371 
L 277.152038 286.529034 
L 277.998433 291.076698 
L 279.691223 273.137815 
L 280.537618 269.675926 
L 281.384013 273.908872 
L 282.230408 272.225135 
L 283.076803 270.100794 
L 283.923197 268.967812 
L 284.769592 268.920604 
L 285.615987 272.618532 
L 286.462382 268.338377 
L 287.308777 276.174837 
L 288.155172 279.778349 
L 289.001567 279.69967 
L 289.847962 284.766617 
L 290.694357 290.620358 
L 291.540752 294.57006 
L 292.387147 301.100443 
L 293.233542 300.581159 
L 294.079937 306.010032 
L 294.926332 307.221693 
L 295.772727 313.500302 
L 296.619122 315.042417 
L 297.465517 320.266723 
L 298.311912 319.385515 
L 299.158307 321.336762 
L 300.004702 318.929175 
L 300.851097 316.065248 
L 301.697492 315.782002 
L 302.543887 315.325662 
L 303.390282 317.906344 
L 304.236677 318.472835 
L 305.083072 326.026048 
L 305.929467 328.055975 
L 306.775862 318.75608 
L 307.622257 320.329666 
L 308.468652 320.030685 
L 309.315047 323.020499 
L 310.161442 321.116459 
L 311.007837 325.018953 
L 311.854232 321.934724 
L 312.700627 330.353411 
L 313.547022 327.50522 
L 314.393417 331.816846 
L 315.239812 333.846772 
L 316.086207 332.084355 
L 316.932602 333.909715 
L 317.778997 331.706695 
L 318.625392 326.655483 
L 319.471787 327.678314 
L 320.318182 327.977295 
L 321.164577 329.865599 
L 322.010972 334.853867 
L 322.857367 337.702058 
L 323.703762 330.967109 
L 325.396552 331.879789 
L 326.242947 330.589449 
L 327.089342 333.059979 
L 327.935737 333.091451 
L 328.782132 337.591907 
L 329.628527 343.807573 
L 330.474922 352.33641 
L 331.321317 353.264826 
L 332.167712 351.927278 
L 333.014107 354.492223 
L 333.860502 363.524608 
L 334.706897 361.368795 
L 335.553292 361.069814 
L 336.399687 360.975399 
L 337.246082 365.302761 
L 338.092476 366.042346 
L 338.938871 370.196614 
L 339.785266 368.355518 
L 340.631661 365.900724 
L 341.478056 361.589097 
L 342.324451 362.785023 
L 343.170846 360.865248 
L 344.017241 359.669322 
L 344.863636 358.032792 
L 345.710031 360.220077 
L 346.556426 365.287025 
L 347.402821 365.774837 
L 348.249216 364.594647 
L 349.095611 365.302761 
L 349.942006 358.504868 
L 350.788401 361.431739 
L 351.634796 358.599283 
L 352.481191 352.163316 
L 353.327586 349.016143 
L 354.173981 354.901356 
L 355.020376 358.001321 
L 355.866771 361.856607 
L 356.713166 359.055623 
L 357.559561 359.826681 
L 358.405956 363.477401 
L 359.252351 363.414457 
L 360.098746 360.235813 
L 360.945141 352.116108 
L 361.791536 352.87143 
L 362.637931 352.478033 
L 363.484326 353.217619 
L 364.330721 354.69679 
L 365.177116 355.420639 
L 366.023511 359.18151 
L 366.869906 360.267285 
L 367.716301 358.363246 
L 368.562696 357.183056 
L 369.409091 359.700794 
L 370.255486 355.60947 
L 371.101881 358.976944 
L 371.948276 358.914001 
L 373.641066 361.872343 
L 374.487461 365.83778 
L 375.333856 366.876347 
L 376.180251 368.261103 
L 377.026646 369.268198 
L 377.873041 368.906273 
L 378.719436 370.338237 
L 379.565831 370.621482 
L 380.412226 366.907819 
L 381.258621 362.18706 
L 382.105016 364.846421 
L 382.951411 363.445929 
L 383.797806 362.265739 
L 384.644201 365.711893 
L 385.490596 366.687517 
L 387.183386 372.918918 
L 388.029781 374.350882 
L 388.876176 376.003147 
L 389.722571 378.23764 
L 390.568966 381.117302 
L 391.415361 375.169146 
L 392.261755 359.952568 
L 393.10815 360.582002 
L 393.954545 355.168865 
L 394.80094 352.33641 
L 396.49373 357.859698 
L 397.340125 355.782564 
L 398.18652 358.520604 
L 399.032915 357.104377 
L 399.87931 358.426189 
L 400.725705 359.055623 
L 401.5721 358.709434 
L 402.418495 356.317583 
L 403.26489 351.88007 
L 404.111285 354.681054 
L 404.95768 360.519059 
L 405.804075 362.139852 
L 407.496865 371.675785 
L 408.34326 373.642768 
L 409.189655 378.473678 
L 410.03605 380.645227 
L 410.882445 380.865529 
L 411.72884 388.65478 
L 412.575235 392.714633 
L 413.42163 400.629772 
L 414.268025 396.727278 
L 415.11442 397.057731 
L 415.960815 398.835883 
L 416.80721 401.24347 
L 418.5 412.840801 
L 419.346395 414.540274 
L 420.19279 421.700091 
L 421.039185 422.077752 
L 421.88558 422.077752 
L 422.731975 425.917302 
L 423.57837 427.852813 
L 424.424765 428.51372 
L 425.27116 431.015722 
L 426.117555 431.786779 
L 426.96395 431.802515 
L 427.810345 432.132968 
L 428.65674 431.802515 
L 429.503135 434.619234 
L 430.34953 435.264405 
L 431.195925 433.407573 
L 432.04232 438.222747 
L 432.888715 437.939501 
L 433.73511 437.357274 
L 434.581505 435.878103 
L 435.4279 428.734022 
L 436.274295 429.977155 
L 437.12069 430.181721 
L 437.967085 426.373642 
L 438.81348 427.60104 
L 439.659875 428.545191 
L 440.50627 427.962965 
L 441.352665 430.71674 
L 442.19906 431.330439 
L 443.045455 431.739571 
L 443.89185 428.151795 
L 444.738245 427.585304 
L 445.584639 425.492434 
L 446.431034 424.343716 
L 447.277429 427.490889 
L 448.123824 426.924398 
L 448.970219 430.638061 
L 449.816614 428.010172 
L 450.663009 427.317794 
L 451.509404 428.529456 
L 452.355799 428.529456 
L 453.202194 429.4264 
L 454.048589 432.652251 
L 454.894984 433.832441 
L 456.587774 430.402023 
L 457.434169 433.580667 
L 458.280564 430.165985 
L 459.126959 424.737113 
L 459.973354 418.190994 
L 460.819749 417.089484 
L 461.666144 419.182353 
L 463.358934 422.360998 
L 464.205329 420.409751 
L 465.051724 420.740204 
L 465.898119 421.306695 
L 466.744514 424.186358 
L 467.590909 425.933038 
L 468.437304 425.099038 
L 469.283699 422.04628 
L 470.130094 420.692996 
L 470.976489 416.224011 
L 471.822884 417.514352 
L 472.669279 419.213825 
L 473.515674 419.528542 
L 474.362069 419.292504 
L 475.208464 418.20673 
L 476.054859 425.649793 
L 476.901254 428.51372 
L 477.747649 425.382283 
L 478.594044 422.848809 
L 479.440439 421.432582 
L 480.286834 420.866091 
L 481.133229 425.31934 
L 481.979624 422.471149 
L 482.826019 423.887376 
L 483.672414 423.887376 
L 484.518809 428.309153 
L 485.365204 428.041644 
L 486.211599 428.859909 
L 487.057994 427.884285 
L 487.904389 425.177717 
L 488.750784 426.011718 
L 489.597179 424.390924 
L 490.443574 424.957415 
L 491.289969 420.929034 
L 492.136364 424.453867 
L 492.982759 422.848809 
L 494.675549 423.777225 
L 495.521944 427.286322 
L 496.368339 424.060471 
L 497.214734 426.751303 
L 498.061129 428.639607 
L 498.907524 425.177717 
L 499.753918 428.104587 
L 501.446708 432.793874 
L 502.293103 432.526365 
L 503.139498 431.472062 
L 503.985893 433.045648 
L 504.832288 432.872554 
L 505.678683 433.124327 
L 506.525078 433.91112 
L 507.371473 436.00399 
L 508.217868 435.201461 
L 509.064263 437.011085 
L 509.910658 435.972518 
L 510.757053 439.324257 
L 511.603448 437.923765 
L 512.449843 438.159803 
L 513.296238 436.365915 
L 514.142633 435.09131 
L 514.989028 432.793874 
L 515.835423 431.786779 
L 516.681818 430.496438 
L 517.528213 431.519269 
L 518.374608 432.793874 
L 519.221003 430.748212 
L 520.067398 427.695455 
L 520.913793 427.459417 
L 521.760188 428.214738 
L 522.606583 428.230474 
L 523.452978 426.971605 
L 524.299373 422.691451 
L 525.145768 423.966055 
L 525.992163 422.376733 
L 526.838558 423.242206 
L 527.684953 421.904658 
L 528.531348 420.205184 
L 529.377743 419.670165 
L 530.224138 416.979333 
L 531.070533 415.327067 
L 531.916928 417.325522 
L 532.763323 415.437218 
L 533.609718 420.818883 
L 534.456113 421.574204 
L 535.302508 419.182353 
L 536.148903 418.962051 
L 536.995298 416.302691 
L 537.841693 416.098124 
L 538.688088 416.38137 
L 539.534483 415.704728 
L 540.380878 417.152427 
L 541.227273 417.671711 
L 542.073668 417.467144 
L 542.920063 419.418391 
L 543.766458 417.262578 
L 544.612853 420.157977 
L 545.459248 418.049371 
L 546.305643 418.080843 
L 547.152038 421.180808 
L 547.998433 421.448318 
L 548.844828 426.405114 
L 549.691223 428.340625 
L 550.537618 428.104587 
L 551.384013 426.68836 
L 552.230408 424.359452 
L 553.076803 421.574204 
L 553.923197 423.68281 
L 554.769592 426.263491 
L 555.615987 424.453867 
L 556.462382 421.951865 
L 557.308777 416.774766 
L 558.155172 417.75039 
L 559.001567 416.161068 
L 559.847962 415.043822 
L 560.694357 412.054008 
L 561.540752 411.692083 
L 562.387147 412.19563 
L 563.233542 411.09412 
L 564.079937 410.858082 
L 564.926332 411.36163 
L 565.772727 410.716459 
L 566.619122 410.543365 
L 567.465517 410.087025 
L 568.311912 406.924117 
L 570.004702 403.619586 
L 570.851097 405.208908 
L 571.697492 407.317513 
L 572.543887 405.492153 
L 573.390282 407.868268 
L 574.236677 406.971324 
L 575.083072 409.284496 
L 575.929467 414.052462 
L 576.775862 413.64333 
L 577.622257 412.290046 
L 578.468652 412.998159 
L 579.315047 411.707819 
L 580.161442 412.19563 
L 581.007837 411.518988 
L 581.854232 411.566196 
L 582.700627 411.393102 
L 583.547022 410.323063 
L 584.393417 409.882459 
L 585.239812 411.031177 
L 586.086207 409.976874 
L 586.932602 409.363175 
L 587.778997 408.041363 
L 588.625392 412.038272 
L 589.471787 413.171254 
L 590.318182 413.423028 
L 591.164577 413.863632 
L 592.010972 417.168163 
L 592.857367 417.199635 
L 593.703762 415.704728 
L 594.550157 418.096579 
L 595.396552 417.042276 
L 596.242947 416.633144 
L 597.089342 417.530088 
L 597.935737 416.019445 
L 598.782132 416.491521 
L 599.628527 417.372729 
L 600.474922 418.47424 
L 601.321317 417.829069 
L 602.167712 416.790502 
L 603.014107 416.601672 
L 603.860502 416.208275 
L 604.706897 415.563105 
L 605.553292 413.64333 
L 606.399687 414.146877 
L 607.246082 416.302691 
L 608.092476 413.800688 
L 608.938871 413.611858 
L 609.785266 409.426119 
L 610.631661 410.511893 
L 611.478056 410.936762 
L 612.324451 410.983969 
L 613.170846 413.108311 
L 614.017241 413.973783 
L 614.863636 415.626048 
L 615.710031 415.043822 
L 616.556426 415.909294 
L 617.402821 416.349898 
L 618.249216 415.531633 
L 619.095611 417.404201 
L 619.942006 418.66307 
L 620.788401 420.929034 
L 621.634796 426.389378 
L 622.481191 426.200548 
L 623.327586 428.24621 
L 625.020376 427.52236 
L 625.866771 428.734022 
L 626.713166 428.954324 
L 627.559561 428.560927 
L 628.405956 428.765494 
L 629.252351 431.25176 
L 630.098746 431.25176 
L 630.945141 431.047194 
L 631.791536 434.084215 
L 633.484326 435.28014 
L 634.330721 434.052743 
L 635.177116 431.597949 
L 636.023511 431.597949 
L 636.869906 430.213193 
L 637.716301 429.206098 
L 638.562696 431.802515 
L 639.409091 430.622325 
L 640.255486 431.031458 
L 641.101881 430.244665 
L 641.948276 432.227383 
L 642.794671 430.040098 
L 643.641066 429.851268 
L 644.487461 431.236024 
L 645.333856 428.875645 
L 646.180251 428.89138 
L 647.026646 429.095947 
L 647.873041 430.291872 
L 648.719436 431.047194 
L 649.565831 432.022817 
L 650.412226 431.267496 
L 651.258621 430.213193 
L 652.105016 430.008627 
L 653.797806 427.915757 
L 654.644201 429.851268 
L 655.490596 428.120323 
L 656.336991 429.080211 
L 657.183386 431.204552 
L 658.029781 431.597949 
L 658.876176 433.014176 
L 659.722571 431.141609 
L 660.568966 430.575118 
L 661.415361 430.779684 
L 662.261755 431.157345 
L 663.10815 432.08576 
L 663.954545 434.383196 
L 664.80094 433.596403 
L 665.647335 437.876558 
L 667.340125 440.677541 
L 668.18652 439.355729 
L 669.032915 440.472975 
L 669.87931 438.631879 
L 670.725705 438.804974 
L 671.5721 440.8349 
L 672.418495 441.02373 
L 673.26489 440.866372 
L 674.111285 438.867917 
L 674.95768 440.520183 
L 675.804075 439.969427 
L 676.65047 444.265318 
L 677.496865 444.611507 
L 678.34326 444.21811 
L 679.189655 444.21811 
L 680.03605 442.172448 
L 680.882445 441.605957 
L 681.72884 442.691732 
L 682.575235 445.099319 
L 683.42163 444.894752 
L 684.268025 444.21811 
L 685.11442 444.21811 
L 685.960815 440.803428 
L 686.80721 443.163808 
L 689.346395 436.554745 
L 690.19279 435.295876 
L 691.039185 437.923765 
L 691.88558 437.923765 
L 692.731975 438.458785 
L 693.57837 437.750671 
L 694.424765 438.09686 
L 695.27116 440.394296 
L 696.117555 438.28569 
L 696.96395 438.505992 
L 697.810345 439.182634 
L 698.65674 437.593312 
L 699.503135 434.949687 
L 700.34953 434.603498 
L 701.195925 433.391837 
L 702.04232 431.125873 
L 703.73511 429.756853 
L 704.581505 430.464967 
L 705.4279 430.653797 
L 706.274295 431.267496 
L 707.12069 430.763948 
L 708.81348 432.856818 
L 709.659875 430.779684 
L 710.50627 429.741117 
L 711.352665 432.180176 
L 712.19906 430.103042 
L 713.045455 428.671078 
L 713.89185 427.837078 
L 714.738245 424.611226 
L 715.584639 424.453867 
L 716.431034 420.740204 
L 717.277429 420.425486 
L 718.123824 421.810242 
L 718.970219 424.689905 
L 719.816614 422.471149 
L 721.509404 419.670165 
L 722.355799 417.183899 
L 723.202194 418.867636 
L 724.048589 419.229561 
L 724.894984 417.75039 
L 725.741379 417.120955 
L 726.587774 414.430123 
L 727.434169 412.305782 
L 728.280564 412.352989 
L 729.973354 414.225557 
L 730.819749 416.475785 
L 731.666144 416.680351 
L 732.512539 417.372729 
L 734.205329 417.404201 
L 735.051724 417.93922 
L 735.898119 420.2996 
L 736.744514 421.306695 
L 737.590909 421.322431 
L 738.437304 419.858995 
L 739.283699 420.551373 
L 740.130094 419.717373 
L 740.976489 421.888922 
L 741.822884 421.1336 
L 742.669279 422.156431 
L 743.515674 422.486884 
L 744.362069 422.50262 
L 745.208464 422.187903 
L 746.901254 420.551373 
L 747.747649 420.740204 
L 748.594044 420.425486 
L 749.440439 420.614317 
L 750.286834 418.143786 
L 751.133229 416.853446 
L 751.979624 416.066653 
L 752.826019 414.131142 
L 753.672414 414.382915 
L 754.518809 411.613404 
L 755.365204 413.784953 
L 756.211599 411.28295 
L 757.904389 408.230193 
L 758.750784 408.120042 
L 759.597179 408.639326 
L 760.443574 408.481967 
L 761.289969 409.331704 
L 762.136364 408.230193 
L 762.982759 410.055553 
L 763.829154 409.567741 
L 764.675549 409.284496 
L 765.521944 408.686533 
L 766.368339 408.245929 
L 767.214734 406.79823 
L 768.061129 407.160155 
L 768.907524 407.364721 
L 769.753918 408.35608 
L 770.600313 409.646421 
L 771.446708 409.693628 
L 772.293103 410.527629 
L 773.139498 409.45759 
L 774.832288 409.976874 
L 775.678683 412.683442 
L 776.525078 413.18699 
L 777.371473 416.790502 
L 778.217868 416.979333 
L 779.064263 417.954956 
L 779.910658 418.600126 
L 780.757053 421.259487 
L 781.603448 422.77013 
L 782.449843 423.87164 
L 783.296238 427.443681 
L 784.142633 425.350811 
L 785.835423 430.842627 
L 786.681818 429.992891 
L 787.528213 428.576663 
L 788.374608 429.520815 
L 789.221003 429.221834 
L 790.067398 430.921307 
L 790.913793 428.372097 
L 791.760188 429.61523 
L 792.606583 429.929947 
L 793.452978 429.001531 
L 794.299373 428.372097 
L 795.145768 429.316249 
L 795.992163 429.61523 
L 796.838558 430.701005 
L 797.684953 430.087306 
L 798.531348 430.087306 
L 799.377743 429.630966 
L 800.224138 431.17308 
L 801.070533 431.472062 
L 801.916928 430.858363 
L 802.763323 430.543646 
L 803.609718 426.247756 
L 804.456113 426.090397 
L 805.302508 426.719831 
L 806.148903 427.176171 
L 806.995298 425.980246 
L 807.841693 423.399564 
L 808.688088 422.817338 
L 809.534483 423.855904 
L 810.380878 424.013263 
L 811.227273 425.067566 
L 812.073668 425.838623 
L 812.920063 428.734022 
L 813.766458 429.331985 
L 814.612853 426.310699 
L 815.459248 427.223379 
L 817.152038 427.538096 
L 817.998433 427.081756 
L 818.844828 427.994436 
L 819.691223 427.695455 
L 820.537618 428.151795 
L 821.384013 428.450776 
L 822.230408 430.685269 
L 823.076803 431.755307 
L 823.923197 431.613685 
L 824.769592 434.713649 
L 825.615987 433.974064 
L 826.462382 434.115687 
L 827.308777 435.295876 
L 828.155172 437.231387 
L 829.001567 437.357274 
L 829.847962 438.978068 
L 830.694357 438.380105 
L 831.540752 438.962332 
L 832.387147 437.782143 
L 833.233542 438.663351 
L 834.079937 440.126786 
L 834.926332 439.985163 
L 835.772727 438.474521 
L 836.619122 440.221201 
L 838.311912 441.10241 
L 839.158307 442.408486 
L 840.851097 447.381019 
L 841.697492 448.104868 
L 842.543887 445.980527 
L 843.390282 450.182002 
L 844.236677 451.629701 
L 846.775862 451.031739 
L 847.622257 450.119059 
L 848.468652 447.349547 
L 849.315047 447.900302 
L 850.161442 449.31653 
L 851.007837 447.554113 
L 851.854232 446.798792 
L 852.700627 446.625697 
L 853.547022 446.609961 
L 854.393417 448.765774 
L 855.239812 447.318075 
L 857.778997 449.678455 
L 858.625392 451.97589 
L 859.471787 452.668268 
L 860.318182 452.778419 
L 861.164577 452.447966 
L 862.010972 450.008908 
L 862.857367 450.119059 
L 863.703762 450.953059 
L 864.550157 449.473888 
L 865.396552 449.615511 
L 866.242947 451.157626 
L 867.089342 450.276417 
L 867.935737 451.51955 
L 868.782132 451.661173 
L 869.628527 451.629701 
L 870.474922 451.739852 
L 871.321317 451.708381 
L 872.167712 453.691099 
L 873.014107 453.219024 
L 873.860502 452.904306 
L 874.706897 453.990081 
L 875.553292 451.173361 
L 876.399687 452.684004 
L 877.246082 451.818532 
L 878.092476 449.568303 
L 878.938871 449.017548 
L 879.785266 449.9617 
L 880.631661 449.23785 
L 881.478056 448.938869 
L 882.324451 447.68 
L 883.170846 448.498265 
L 884.017241 448.32517 
L 884.863636 451.06321 
L 885.710031 455.469252 
L 887.402821 456.916951 
L 888.249216 456.869744 
L 889.095611 458.679368 
L 890.788401 463.415862 
L 892.481191 465.996544 
L 893.327586 466.216846 
L 895.020376 464.045297 
L 895.866771 462.676277 
L 896.713166 461.795068 
L 897.559561 463.809259 
L 898.405956 464.721939 
L 899.252351 464.580316 
L 900.098746 464.800618 
L 900.945141 465.697562 
L 901.791536 466.059487 
L 902.637931 467.145262 
L 903.484326 469.002093 
L 904.330721 468.93915 
L 905.177116 469.426962 
L 906.023511 471.740133 
L 907.716301 475.264967 
L 908.562696 476.948704 
L 909.409091 477.625346 
L 910.255486 478.774064 
L 911.101881 478.301988 
L 911.948276 478.774064 
L 912.794671 480.111612 
L 913.641066 482.188746 
L 914.487461 482.786709 
L 915.333856 482.314633 
L 916.180251 483.384672 
L 917.026646 484.848107 
L 917.873041 483.982634 
L 918.719436 485.36739 
L 919.565831 483.274521 
L 920.412226 484.53339 
L 921.258621 485.241503 
L 922.105016 484.675012 
L 922.951411 486.689203 
L 923.797806 487.27143 
L 924.644201 486.925241 
L 925.490596 486.311542 
L 926.336991 486.044032 
L 927.183386 486.484636 
L 928.029781 486.673467 
L 928.876176 486.453165 
L 930.568966 489.254148 
L 931.415361 489.568865 
L 932.261755 490.402866 
L 933.10815 491.598792 
L 933.954545 492.48 
L 933.954545 492.48 
" style="fill:none;stroke:#1f77b4;stroke-linecap:square;stroke-width:1.5;"/>
   </g>
   <g id="patch_3">
    <path d="M 135 512.64 
L 135 69.12 
" style="fill:none;stroke:#000000;stroke-linecap:square;stroke-linejoin:miter;stroke-width:0.8;"/>
   </g>
   <g id="patch_4">
    <path d="M 972 512.64 
L 972 69.12 
" style="fill:none;stroke:#000000;stroke-linecap:square;stroke-linejoin:miter;stroke-width:0.8;"/>
   </g>
   <g id="patch_5">
    <path d="M 135 512.64 
L 972 512.64 
" style="fill:none;stroke:#000000;stroke-linecap:square;stroke-linejoin:miter;stroke-width:0.8;"/>
   </g>
   <g id="patch_6">
    <path d="M 135 69.12 
L 972 69.12 
" style="fill:none;stroke:#000000;stroke-linecap:square;stroke-linejoin:miter;stroke-width:0.8;"/>
   </g>
   <g id="text_15">
    <!-- Average standard deviation of split frequencies -->
    <g transform="translate(411.394688 49.682625)scale(0.12 -0.12)">
     <defs>
      <path d="M 34.1875 63.1875 
L 20.796875 26.90625 
L 47.609375 26.90625 
z
M 28.609375 72.90625 
L 39.796875 72.90625 
L 67.578125 0 
L 57.328125 0 
L 50.6875 18.703125 
L 17.828125 18.703125 
L 11.1875 0 
L 0.78125 0 
z
" id="DejaVuSans-65"/>
      <path d="M 45.40625 27.984375 
Q 45.40625 37.75 41.375 43.109375 
Q 37.359375 48.484375 30.078125 48.484375 
Q 22.859375 48.484375 18.828125 43.109375 
Q 14.796875 37.75 14.796875 27.984375 
Q 14.796875 18.265625 18.828125 12.890625 
Q 22.859375 7.515625 30.078125 7.515625 
Q 37.359375 7.515625 41.375 12.890625 
Q 45.40625 18.265625 45.40625 27.984375 
z
M 54.390625 6.78125 
Q 54.390625 -7.171875 48.1875 -13.984375 
Q 42 -20.796875 29.203125 -20.796875 
Q 24.46875 -20.796875 20.265625 -20.09375 
Q 16.0625 -19.390625 12.109375 -17.921875 
L 12.109375 -9.1875 
Q 16.0625 -11.328125 19.921875 -12.34375 
Q 23.78125 -13.375 27.78125 -13.375 
Q 36.625 -13.375 41.015625 -8.765625 
Q 45.40625 -4.15625 45.40625 5.171875 
L 45.40625 9.625 
Q 42.625 4.78125 38.28125 2.390625 
Q 33.9375 0 27.875 0 
Q 17.828125 0 11.671875 7.65625 
Q 5.515625 15.328125 5.515625 27.984375 
Q 5.515625 40.671875 11.671875 48.328125 
Q 17.828125 56 27.875 56 
Q 33.9375 56 38.28125 53.609375 
Q 42.625 51.21875 45.40625 46.390625 
L 45.40625 54.6875 
L 54.390625 54.6875 
z
" id="DejaVuSans-103"/>
      <path d="M 44.28125 53.078125 
L 44.28125 44.578125 
Q 40.484375 46.53125 36.375 47.5 
Q 32.28125 48.484375 27.875 48.484375 
Q 21.1875 48.484375 17.84375 46.4375 
Q 14.5 44.390625 14.5 40.28125 
Q 14.5 37.15625 16.890625 35.375 
Q 19.28125 33.59375 26.515625 31.984375 
L 29.59375 31.296875 
Q 39.15625 29.25 43.1875 25.515625 
Q 47.21875 21.78125 47.21875 15.09375 
Q 47.21875 7.46875 41.1875 3.015625 
Q 35.15625 -1.421875 24.609375 -1.421875 
Q 20.21875 -1.421875 15.453125 -0.5625 
Q 10.6875 0.296875 5.421875 2 
L 5.421875 11.28125 
Q 10.40625 8.6875 15.234375 7.390625 
Q 20.0625 6.109375 24.8125 6.109375 
Q 31.15625 6.109375 34.5625 8.28125 
Q 37.984375 10.453125 37.984375 14.40625 
Q 37.984375 18.0625 35.515625 20.015625 
Q 33.0625 21.96875 24.703125 23.78125 
L 21.578125 24.515625 
Q 13.234375 26.265625 9.515625 29.90625 
Q 5.8125 33.546875 5.8125 39.890625 
Q 5.8125 47.609375 11.28125 51.796875 
Q 16.75 56 26.8125 56 
Q 31.78125 56 36.171875 55.265625 
Q 40.578125 54.546875 44.28125 53.078125 
z
" id="DejaVuSans-115"/>
      <path d="M 37.109375 75.984375 
L 37.109375 68.5 
L 28.515625 68.5 
Q 23.6875 68.5 21.796875 66.546875 
Q 19.921875 64.59375 19.921875 59.515625 
L 19.921875 54.6875 
L 34.71875 54.6875 
L 34.71875 47.703125 
L 19.921875 47.703125 
L 19.921875 0 
L 10.890625 0 
L 10.890625 47.703125 
L 2.296875 47.703125 
L 2.296875 54.6875 
L 10.890625 54.6875 
L 10.890625 58.5 
Q 10.890625 67.625 15.140625 71.796875 
Q 19.390625 75.984375 28.609375 75.984375 
z
" id="DejaVuSans-102"/>
      <path d="M 18.109375 8.203125 
L 18.109375 -20.796875 
L 9.078125 -20.796875 
L 9.078125 54.6875 
L 18.109375 54.6875 
L 18.109375 46.390625 
Q 20.953125 51.265625 25.265625 53.625 
Q 29.59375 56 35.59375 56 
Q 45.5625 56 51.78125 48.09375 
Q 58.015625 40.1875 58.015625 27.296875 
Q 58.015625 14.40625 51.78125 6.484375 
Q 45.5625 -1.421875 35.59375 -1.421875 
Q 29.59375 -1.421875 25.265625 0.953125 
Q 20.953125 3.328125 18.109375 8.203125 
z
M 48.6875 27.296875 
Q 48.6875 37.203125 44.609375 42.84375 
Q 40.53125 48.484375 33.40625 48.484375 
Q 26.265625 48.484375 22.1875 42.84375 
Q 18.109375 37.203125 18.109375 27.296875 
Q 18.109375 17.390625 22.1875 11.75 
Q 26.265625 6.109375 33.40625 6.109375 
Q 40.53125 6.109375 44.609375 11.75 
Q 48.6875 17.390625 48.6875 27.296875 
z
" id="DejaVuSans-112"/>
      <path d="M 9.421875 75.984375 
L 18.40625 75.984375 
L 18.40625 0 
L 9.421875 0 
z
" id="DejaVuSans-108"/>
      <path d="M 14.796875 27.296875 
Q 14.796875 17.390625 18.875 11.75 
Q 22.953125 6.109375 30.078125 6.109375 
Q 37.203125 6.109375 41.296875 11.75 
Q 45.40625 17.390625 45.40625 27.296875 
Q 45.40625 37.203125 41.296875 42.84375 
Q 37.203125 48.484375 30.078125 48.484375 
Q 22.953125 48.484375 18.875 42.84375 
Q 14.796875 37.203125 14.796875 27.296875 
z
M 45.40625 8.203125 
Q 42.578125 3.328125 38.25 0.953125 
Q 33.9375 -1.421875 27.875 -1.421875 
Q 17.96875 -1.421875 11.734375 6.484375 
Q 5.515625 14.40625 5.515625 27.296875 
Q 5.515625 40.1875 11.734375 48.09375 
Q 17.96875 56 27.875 56 
Q 33.9375 56 38.25 53.625 
Q 42.578125 51.265625 45.40625 46.390625 
L 45.40625 54.6875 
L 54.390625 54.6875 
L 54.390625 -20.796875 
L 45.40625 -20.796875 
z
" id="DejaVuSans-113"/>
      <path d="M 8.5 21.578125 
L 8.5 54.6875 
L 17.484375 54.6875 
L 17.484375 21.921875 
Q 17.484375 14.15625 20.5 10.265625 
Q 23.53125 6.390625 29.59375 6.390625 
Q 36.859375 6.390625 41.078125 11.03125 
Q 45.3125 15.671875 45.3125 23.6875 
L 45.3125 54.6875 
L 54.296875 54.6875 
L 54.296875 0 
L 45.3125 0 
L 45.3125 8.40625 
Q 42.046875 3.421875 37.71875 1 
Q 33.40625 -1.421875 27.6875 -1.421875 
Q 18.265625 -1.421875 13.375 4.4375 
Q 8.5 10.296875 8.5 21.578125 
z
M 31.109375 56 
z
" id="DejaVuSans-117"/>
      <path d="M 48.78125 52.59375 
L 48.78125 44.1875 
Q 44.96875 46.296875 41.140625 47.34375 
Q 37.3125 48.390625 33.40625 48.390625 
Q 24.65625 48.390625 19.8125 42.84375 
Q 14.984375 37.3125 14.984375 27.296875 
Q 14.984375 17.28125 19.8125 11.734375 
Q 24.65625 6.203125 33.40625 6.203125 
Q 37.3125 6.203125 41.140625 7.25 
Q 44.96875 8.296875 48.78125 10.40625 
L 48.78125 2.09375 
Q 45.015625 0.34375 40.984375 -0.53125 
Q 36.96875 -1.421875 32.421875 -1.421875 
Q 20.0625 -1.421875 12.78125 6.34375 
Q 5.515625 14.109375 5.515625 27.296875 
Q 5.515625 40.671875 12.859375 48.328125 
Q 20.21875 56 33.015625 56 
Q 37.15625 56 41.109375 55.140625 
Q 45.0625 54.296875 48.78125 52.59375 
z
" id="DejaVuSans-99"/>
     </defs>
     <use xlink:href="#DejaVuSans-65"/>
     <use x="62.533203" xlink:href="#DejaVuSans-118"/>
     <use x="121.712891" xlink:href="#DejaVuSans-101"/>
     <use x="183.236328" xlink:href="#DejaVuSans-114"/>
     <use x="224.349609" xlink:href="#DejaVuSans-97"/>
     <use x="285.628906" xlink:href="#DejaVuSans-103"/>
     <use x="349.105469" xlink:href="#DejaVuSans-101"/>
     <use x="410.628906" xlink:href="#DejaVuSans-32"/>
     <use x="442.416016" xlink:href="#DejaVuSans-115"/>
     <use x="494.515625" xlink:href="#DejaVuSans-116"/>
     <use x="533.724609" xlink:href="#DejaVuSans-97"/>
     <use x="595.003906" xlink:href="#DejaVuSans-110"/>
     <use x="658.382812" xlink:href="#DejaVuSans-100"/>
     <use x="721.859375" xlink:href="#DejaVuSans-97"/>
     <use x="783.138672" xlink:href="#DejaVuSans-114"/>
     <use x="822.501953" xlink:href="#DejaVuSans-100"/>
     <use x="885.978516" xlink:href="#DejaVuSans-32"/>
     <use x="917.765625" xlink:href="#DejaVuSans-100"/>
     <use x="981.242188" xlink:href="#DejaVuSans-101"/>
     <use x="1042.765625" xlink:href="#DejaVuSans-118"/>
     <use x="1101.945312" xlink:href="#DejaVuSans-105"/>
     <use x="1129.728516" xlink:href="#DejaVuSans-97"/>
     <use x="1191.007812" xlink:href="#DejaVuSans-116"/>
     <use x="1230.216797" xlink:href="#DejaVuSans-105"/>
     <use x="1258" xlink:href="#DejaVuSans-111"/>
     <use x="1319.181641" xlink:href="#DejaVuSans-110"/>
     <use x="1382.560547" xlink:href="#DejaVuSans-32"/>
     <use x="1414.347656" xlink:href="#DejaVuSans-111"/>
     <use x="1475.529297" xlink:href="#DejaVuSans-102"/>
     <use x="1510.734375" xlink:href="#DejaVuSans-32"/>
     <use x="1542.521484" xlink:href="#DejaVuSans-115"/>
     <use x="1594.621094" xlink:href="#DejaVuSans-112"/>
     <use x="1658.097656" xlink:href="#DejaVuSans-108"/>
     <use x="1685.880859" xlink:href="#DejaVuSans-105"/>
     <use x="1713.664062" xlink:href="#DejaVuSans-116"/>
     <use x="1752.873047" xlink:href="#DejaVuSans-32"/>
     <use x="1784.660156" xlink:href="#DejaVuSans-102"/>
     <use x="1819.865234" xlink:href="#DejaVuSans-114"/>
     <use x="1858.728516" xlink:href="#DejaVuSans-101"/>
     <use x="1920.251953" xlink:href="#DejaVuSans-113"/>
     <use x="1983.728516" xlink:href="#DejaVuSans-117"/>
     <use x="2047.107422" xlink:href="#DejaVuSans-101"/>
     <use x="2108.630859" xlink:href="#DejaVuSans-110"/>
     <use x="2172.009766" xlink:href="#DejaVuSans-99"/>
     <use x="2226.990234" xlink:href="#DejaVuSans-105"/>
     <use x="2254.773438" xlink:href="#DejaVuSans-101"/>
     <use x="2316.296875" xlink:href="#DejaVuSans-115"/>
    </g>
    <!-- 4 chains long run -->
    <g transform="translate(501.567187 63.12)scale(0.12 -0.12)">
     <defs>
      <path d="M 54.890625 33.015625 
L 54.890625 0 
L 45.90625 0 
L 45.90625 32.71875 
Q 45.90625 40.484375 42.875 44.328125 
Q 39.84375 48.1875 33.796875 48.1875 
Q 26.515625 48.1875 22.3125 43.546875 
Q 18.109375 38.921875 18.109375 30.90625 
L 18.109375 0 
L 9.078125 0 
L 9.078125 75.984375 
L 18.109375 75.984375 
L 18.109375 46.1875 
Q 21.34375 51.125 25.703125 53.5625 
Q 30.078125 56 35.796875 56 
Q 45.21875 56 50.046875 50.171875 
Q 54.890625 44.34375 54.890625 33.015625 
z
" id="DejaVuSans-104"/>
     </defs>
     <use xlink:href="#DejaVuSans-52"/>
     <use x="63.623047" xlink:href="#DejaVuSans-32"/>
     <use x="95.410156" xlink:href="#DejaVuSans-99"/>
     <use x="150.390625" xlink:href="#DejaVuSans-104"/>
     <use x="213.769531" xlink:href="#DejaVuSans-97"/>
     <use x="275.048828" xlink:href="#DejaVuSans-105"/>
     <use x="302.832031" xlink:href="#DejaVuSans-110"/>
     <use x="366.210938" xlink:href="#DejaVuSans-115"/>
     <use x="418.310547" xlink:href="#DejaVuSans-32"/>
     <use x="450.097656" xlink:href="#DejaVuSans-108"/>
     <use x="477.880859" xlink:href="#DejaVuSans-111"/>
     <use x="539.0625" xlink:href="#DejaVuSans-110"/>
     <use x="602.441406" xlink:href="#DejaVuSans-103"/>
     <use x="665.917969" xlink:href="#DejaVuSans-32"/>
     <use x="697.705078" xlink:href="#DejaVuSans-114"/>
     <use x="738.818359" xlink:href="#DejaVuSans-117"/>
     <use x="802.197266" xlink:href="#DejaVuSans-110"/>
    </g>
   </g>
  </g>
 </g>
 <defs>
  <clipPath id="p5894f27ae8">
   <rect height="443.52" width="837" x="135" y="69.12"/>
  </clipPath>
 </defs>
</svg>
